#!OML:ASF E:\motion texture\Top Level 1\Subject 1\Session 1\male.ASF
:FULLY-SPECIFIED
:DEGREES
346
root 1.48702 16.3971 3.93769 69.6532 -44.348 -18.9865
lowerback 38.1546 -2.09951 -2.85047
upperback 14.3243 -4.78567 -6.1334
thorax -3.17357 -2.39793 -3.29995
lowerneck -10.5069 -2.56602 -8.0503
upperneck -13.9902 -1.48043 21.1698
head -1.94238 -1.15509 8.00637
rclavicle -3.18055e-015 4.37326e-014
rhumerus 1.45683 14.8864 -89.2491
rradius 62.346
rwrist 4.14679
rhand -25.6856 -28.4719
rfingers 7.12502
rthumb 0.849418 -58.45
lclavicle -3.18055e-015 4.37326e-014
lhumerus 52.7217 26.6723 61.7388
lradius 24.6366
lwrist -7.37498
lhand -13.2547 38.5301
lfingers 7.12502
lthumb 12.8476 68.1147
rfemur -68.1923 -8.89381 44.9658
rtibia 72.5737
rfoot -8.71082 -12.6599
rtoes -14.6046
lfemur -100.753 13.4275 0.551472
ltibia 53.0909
lfoot -2.09139 2.20968
ltoes -6.35791
347
root 1.3449 16.463 3.99127 69.3216 -44.4289 -18.721
lowerback 38.3305 -2.02141 -2.94453
upperback 14.2691 -4.72289 -6.01188
thorax -3.26719 -2.37339 -3.13877
lowerneck -10.3019 -2.90515 -8.28093
upperneck -14.2425 -1.88829 21.6593
head -1.96487 -1.39802 8.20893
rclavicle 8.5875e-014 -1.59028e-014
rhumerus 1.25498 14.9975 -89.0681
rradius 63.2459
rwrist 4.44521
rhand -26.0175 -28.5995
rfingers 7.12502
rthumb 0.528846 -58.5786
lclavicle 8.5875e-014 -1.59028e-014
lhumerus 50.3187 25.3352 60.168
lradius 26.5539
lwrist -5.13169
lhand -12.9129 38.3013
lfingers 7.12502
lthumb 13.1772 67.8649
rfemur -68.2875 -9.10626 44.6122
rtibia 72.6747
rfoot -8.02605 -12.5354
rtoes -13.9825
lfemur -99.868 13.219 0.613922
ltibia 52.8355
lfoot -2.41877 2.26978
ltoes -6.86787
348
root 1.20457 16.5301 4.04305 68.9572 -44.53 -18.4683
lowerback 38.5094 -1.93365 -3.03926
upperback 14.2136 -4.64907 -5.87646
thorax -3.36034 -2.34464 -2.96675
lowerneck -10.0922 -3.23701 -8.51186
upperneck -14.4893 -2.28827 22.1357
head -1.9849 -1.63725 8.40811
rclavicle 9.54166e-015 -3.57812e-014
rhumerus 1.0652 15.1405 -88.8661
rradius 64.1725
rwrist 4.77946
rhand -26.3701 -28.7311
rfingers 7.12502
rthumb 0.18826 -58.7107
lclavicle 9.54166e-015 -3.57812e-014
lhumerus 47.9452 23.9399 58.7984
lradius 28.6081
lwrist -3.01185
lhand -12.561 38.0679
lfingers 7.12502
lthumb 13.5164 67.6092
rfemur -68.3626 -9.3332 44.247
rtibia 72.7317
rfoot -7.41482 -12.4485
rtoes -13.4049
lfemur -98.9192 12.9998 0.695938
ltibia 52.5444
lfoot -2.713 2.34955
ltoes -7.42264
349
root 1.066 16.5983 4.09289 68.5631 -44.6525 -18.2306
lowerback 38.6895 -1.83626 -3.13614
upperback 14.1572 -4.56488 -5.72954
thorax -3.45348 -2.31197 -2.78549
lowerneck -9.87851 -3.56033 -8.73856
upperneck -14.7307 -2.679 22.5985
head -2.00288 -1.87222 8.60295
rclavicle 1.90833e-014 -4.21423e-014
rhumerus 0.88721 15.3213 -88.6467
rradius 65.1248
rwrist 5.14941
rhand -26.736 -28.8638
rfingers 7.12502
rthumb -0.165154 -58.8434
lclavicle 1.90833e-014 -4.21423e-014
lhumerus 45.6094 22.4966 57.632
lradius 30.7832
lwrist -1.0309
lhand -12.2125 37.819
lfingers 7.12502
lthumb 13.8522 67.3377
rfemur -68.4177 -9.5697 43.8702
rtibia 72.7425
rfoot -6.87697 -12.3979
rtoes -12.8693
lfemur -97.9116 12.7727 0.795456
ltibia 52.2223
lfoot -2.97342 2.44671
ltoes -8.01431
350
root 0.929088 16.6673 4.14075 68.1397 -44.7961 -18.0076
lowerback 38.8689 -1.73055 -3.2347
upperback 14.1002 -4.47175 -5.57291
thorax -3.54624 -2.27594 -2.59667
lowerneck -9.6647 -3.87552 -8.96419
upperneck -14.9654 -3.0606 23.0517
head -2.01774 -2.10261 8.7952
rclavicle 8.26944e-014 9.85972e-014
rhumerus 0.722596 15.5398 -88.4142
rradius 66.0998
rwrist 5.56197
rhand -27.1134 -28.9954
rfingers 7.12502
rthumb -0.529584 -58.9744
lclavicle 8.26944e-014 9.85972e-014
lhumerus 43.3237 21.0149 56.6744
lradius 33.0601
lwrist 0.795092
lhand -11.8635 37.5654
lfingers 7.12502
lthumb 14.1886 67.0609
rfemur -68.4521 -9.81476 43.4816
rtibia 72.7028
rfoot -6.41441 -12.384
rtoes -12.3818
lfemur -96.8496 12.5376 0.909537
ltibia 51.8746
lfoot -3.20128 2.56011
ltoes -8.64062
351
root 0.793637 16.7369 4.18653 67.6928 -44.9627 -17.8046
lowerback 39.0435 -1.61312 -3.33995
upperback 14.0423 -4.36718 -5.40637
thorax -3.63719 -2.23564 -2.39857
lowerneck -9.4513 -4.18225 -9.18687
upperneck -15.1943 -3.43273 23.4936
head -2.03002 -2.32824 8.9839
rclavicle 7.31528e-014 5.32743e-014
rhumerus 0.570887 15.8031 -88.167
rradius 67.0972
rwrist 6.01422
rhand -27.5022 -29.1249
rfingers 7.12502
rthumb -0.905106 -59.1028
lclavicle 7.31528e-014 5.32743e-014
lhumerus 41.0843 19.4955 55.9084
lradius 35.4272
lwrist 2.46889
lhand -11.514 37.32
lfingers 7.12502
lthumb 14.5253 66.7915
rfemur -68.4642 -10.0609 43.0817
rtibia 72.6082
rfoot -6.02721 -12.404
rtoes -11.9422
lfemur -95.7364 12.3005 1.03612
ltibia 51.5054
lfoot -3.39708 2.68731
ltoes -9.29877
352
root 0.659899 16.8066 4.23048 67.2264 -45.1524 -17.6198
lowerback 39.2063 -1.48933 -3.44431
upperback 13.9833 -4.25487 -5.23486
thorax -3.72576 -2.19234 -2.19908
lowerneck -9.24003 -4.48101 -9.40884
upperneck -15.4162 -3.79551 23.9309
head -2.03886 -2.54908 9.1716
rclavicle 8.5875e-014 1.59028e-014
rhumerus 0.431765 16.1112 -87.9104
rradius 68.1138
rwrist 6.51046
rhand -27.8978 -29.2476
rfingers 7.12502
rthumb -1.28721 -59.2234
lclavicle 8.5875e-014 1.59028e-014
lhumerus 38.898 17.9435 55.329
lradius 37.865
lwrist 3.97907
lhand -11.1736 37.0692
lfingers 7.12502
lthumb 14.8532 66.5168
rfemur -68.4614 -10.3087 42.6711
rtibia 72.4574
rfoot -5.71032 -12.4561
rtoes -11.5584
lfemur -94.582 12.0594 1.17175
ltibia 51.1212
lfoot -3.56184 2.8301
ltoes -9.98069
353
root 0.527776 16.8763 4.27262 66.7418 -45.3617 -17.4565
lowerback 39.3573 -1.35936 -3.54562
upperback 13.9239 -4.13416 -5.05758
thorax -3.8116 -2.14574 -1.99867
lowerneck -9.03091 -4.77161 -9.62757
upperneck -15.6334 -4.14898 24.358
head -2.04538 -2.76515 9.35598
rclavicle -9.22361e-014 7.95139e-015
rhumerus 0.304884 16.4661 -87.6448
rradius 69.1484
rwrist 7.05245
rhand -28.2966 -29.3575
rfingers 7.12502
rthumb -1.67242 -59.3307
lclavicle -9.22361e-014 7.95139e-015
lhumerus 36.7489 16.3557 54.9071
lradius 40.3763
lwrist 5.34613
lhand -10.8291 36.8249
lfingers 7.12502
lthumb 15.1851 66.2477
rfemur -68.4393 -10.557 42.2542
rtibia 72.2457
rfoot -5.46286 -12.5392
rtoes -11.2241
lfemur -93.3875 11.8161 1.31671
ltibia 50.7254
lfoot -3.69581 2.98577
ltoes -10.6837
354
root 0.397028 16.9457 4.313 66.2399 -45.5922 -17.3169
lowerback 39.4968 -1.22328 -3.64704
upperback 13.8635 -4.00621 -4.87464
thorax -3.89542 -2.09644 -1.79539
lowerneck -8.8296 -5.05519 -9.86058
upperneck -15.8395 -4.49335 24.7858
head -2.04574 -2.97508 9.54358
rclavicle 1.17681e-013 4.92986e-014
rhumerus 0.189399 16.8738 -87.3698
rradius 70.1991
rwrist 7.63821
rhand -28.6955 -29.4501
rfingers 7.12502
rthumb -2.0576 -59.4199
lclavicle 1.17681e-013 4.92986e-014
lhumerus 34.6357 14.7374 54.6367
lradius 42.9458
lwrist 6.57068
lhand -10.478 36.6132
lfingers 7.12502
lthumb 15.5233 66.0101
rfemur -68.3942 -10.8035 41.8303
rtibia 71.9694
rfoot -5.28073 -12.6517
rtoes -10.9373
lfemur -92.1534 11.5724 1.46871
ltibia 50.3229
lfoot -3.80237 3.15224
ltoes -11.405
355
root 0.267526 17.0147 4.35169 65.7253 -45.8459 -17.2049
lowerback 39.6226 -1.08246 -3.7493
upperback 13.8013 -3.87306 -4.68987
thorax -3.97774 -2.04524 -1.59215
lowerneck -8.63479 -5.33036 -10.0942
upperneck -16.0343 -4.82839 25.2078
head -2.04093 -3.17933 9.72955
rclavicle 7.63333e-014 -6.04305e-014
rhumerus 0.0837962 17.3379 -87.0939
rradius 71.2624
rwrist 8.26844
rhand -29.0899 -29.5216
rfingers 7.12502
rthumb -2.43855 -59.4874
lclavicle 7.63333e-014 -6.04305e-014
lhumerus 32.5561 13.0902 54.5035
lradius 45.5604
lwrist 7.66264
lhand -10.1323 36.4348
lfingers 7.12502
lthumb 15.8563 65.8056
rfemur -68.3249 -11.0431 41.3996
rtibia 71.626
rfoot -5.16174 -12.7913
rtoes -10.7018
lfemur -90.882 11.3335 1.62374
ltibia 49.9176
lfoot -3.88318 3.32584
ltoes -12.1446
356
root 0.139305 17.083 4.38881 65.1924 -46.1202 -17.1131
lowerback 39.7362 -0.939065 -3.84369
upperback 13.7374 -3.73457 -4.50691
thorax -4.06013 -1.99158 -1.39718
lowerneck -8.43975 -5.59838 -10.3101
upperneck -16.2243 -5.15706 25.6142
head -2.03494 -3.38087 9.90724
rclavicle -3.81667e-014 -2.3059e-014
rhumerus -0.0167132 17.8459 -86.8215
rradius 72.3367
rwrist 8.94143
rhand -29.4793 -29.5725
rfingers 7.12502
rthumb -2.81462 -59.5337
lclavicle -3.81667e-014 -2.3059e-014
lhumerus 30.5123 11.4001 54.4922
lradius 48.2116
lwrist 8.6357
lhand -9.7984 36.285
lfingers 7.12502
lthumb 16.1778 65.6299
rfemur -68.2326 -11.2824 40.961
rtibia 71.2139
rfoot -5.10263 -12.9564
rtoes -10.5027
lfemur -89.5777 11.091 1.78238
ltibia 49.5141
lfoot -3.94032 3.50851
ltoes -12.8978
357
root 0.0120948 17.1505 4.42434 64.6463 -46.4173 -17.0449
lowerback 39.8331 -0.789371 -3.94122
upperback 13.6715 -3.58915 -4.31967
thorax -4.14022 -1.9353 -1.19912
lowerneck -8.24558 -5.85953 -10.5156
upperneck -16.4098 -5.47921 26.005
head -2.02765 -3.57906 10.0779
rclavicle -2.22639e-014 -6.91771e-014
rhumerus -0.110395 18.4066 -86.5456
rradius 73.4184
rwrist 9.65458
rhand -29.8578 -29.6001
rfingers 7.12502
rthumb -3.1801 -59.5561
lclavicle -2.22639e-014 -6.91771e-014
lhumerus 28.5037 9.6753 54.6046
lradius 50.8822
lwrist 9.49302
lhand -9.47951 36.1699
lfingers 7.12502
lthumb 16.4848 65.4896
rfemur -68.116 -11.5153 40.5149
rtibia 70.7287
rfoot -5.09765 -13.1432
rtoes -10.3374
lfemur -88.2433 10.8506 1.94057
ltibia 49.1158
lfoot -3.9748 3.69769
ltoes -13.6575
358
root -0.114232 17.2169 4.45842 64.088 -46.7343 -16.9986
lowerback 39.9107 -0.639638 -4.03575
upperback 13.6041 -3.44205 -4.13266
thorax -4.21774 -1.87843 -1.00393
lowerneck -8.06119 -6.11457 -10.7325
upperneck -16.583 -5.79406 26.3969
head -2.01361 -3.77177 10.2508
rclavicle 3.49861e-014 -3.33958e-014
rhumerus -0.197415 19.0225 -86.2737
rradius 74.5042
rwrist 10.4044
rhand -30.2234 -29.6035
rfingers 7.12502
rthumb -3.53323 -59.554
lclavicle 3.49861e-014 -3.33958e-014
lhumerus 26.5279 7.91665 54.8237
lradius 53.5581
lwrist 10.2403
lhand -9.17805 36.0871
lfingers 7.12502
lthumb 16.775 65.3824
rfemur -67.977 -11.7432 40.0642
rtibia 70.1691
rfoot -5.14306 -13.3497
rtoes -10.2116
lfemur -86.8838 10.6109 2.09757
ltibia 48.7261
lfoot -3.98753 3.89136
ltoes -14.4266
359
root -0.239855 17.282 4.49106 63.52 -47.0741 -16.9744
lowerback 39.9655 -0.489015 -4.13101
upperback 13.5351 -3.2934 -3.94755
thorax -4.29152 -1.82103 -0.811432
lowerneck -7.88355 -6.36325 -10.9456
upperneck -16.7474 -6.10247 26.7822
head -1.99534 -3.96043 10.4207
rclavicle -1.27222e-014 1.05753e-013
rhumerus -0.279189 19.6919 -86.0093
rradius 75.5892
rwrist 11.188
rhand -30.5731 -29.58
rfingers 7.12502
rthumb -3.87091 -59.5246
lclavicle -1.27222e-014 1.05753e-013
lhumerus 24.5849 6.12253 55.1398
lradius 56.2263
lwrist 10.8801
lhand -8.90179 36.045
lfingers 7.12502
lthumb 17.041 65.3175
rfemur -67.8145 -11.9621 39.6061
rtibia 69.5296
rfoot -5.23203 -13.5731
rtoes -10.1205
lfemur -85.5019 10.3744 2.24941
ltibia 48.3484
lfoot -3.98103 4.08878
ltoes -15.1961
